<?xml version="1.0" encoding="UTF-8"?>
<!-- Generated by Pixelmator Pro 3.5.11 -->
<svg width="68" height="34" viewBox="0 0 68 34" xmlns="http://www.w3.org/2000/svg">
    <clipPath id="clipPath1">
        <path d="M 0.898 0.907001 L 67.898 0.907001 L 67.898 33.907001 L 0.898 33.907001 Z"/>
    </clipPath>
    <g id="Group" clip-path="url(#clipPath1)">
        <path id="Path" fill="#ffffff" stroke="none" d="M 0.898 4.714001 C 0.898 2.612 2.566 0.907001 4.621 0.907001 C 6.676 0.907001 8.343 2.612 8.343 4.714001 L 8.343 14.868 C 8.343 16.969999 6.676 18.676001 4.621 18.676001 C 2.566 18.676001 0.898 16.969999 0.898 14.868 L 0.898 4.714001 Z M 20.75 4.714001 C 20.75 2.612 22.416 0.907001 24.473 0.907001 C 26.528999 0.907001 28.195 2.612 28.195 4.714001 L 28.195 14.868 C 28.195 16.969999 26.528999 18.676001 24.473 18.676001 C 22.416 18.676001 20.75 16.969999 20.75 14.868 L 20.75 4.714001 Z M 40.602001 4.714001 C 40.602001 2.612 42.268002 0.907001 44.325001 0.907001 C 46.381001 0.907001 48.047001 2.612 48.047001 4.714001 L 48.047001 14.868 C 48.047001 16.969999 46.381001 18.676001 44.325001 18.676001 C 42.268002 18.676001 40.602001 16.969999 40.602001 14.868 L 40.602001 4.714001 Z M 60.456001 4.714001 C 60.456001 2.612 62.120998 0.907001 64.178001 0.907001 C 66.234001 0.907001 67.900002 2.612 67.900002 4.714001 L 67.900002 14.868 C 67.900002 16.969999 66.234001 18.676001 64.178001 18.676001 C 62.120998 18.676001 60.456001 16.969999 60.456001 14.868 L 60.456001 4.714001 Z M 10.826 19.945 C 10.826 17.843 12.493 16.138 14.548 16.138 C 16.603001 16.138 18.27 17.843 18.27 19.945 L 18.27 30.1 C 18.27 32.203999 16.603001 33.908001 14.548 33.908001 C 12.493 33.908001 10.826 32.203999 10.826 30.1 L 10.826 19.945 Z M 30.677999 19.945 C 30.677999 17.843 32.342999 16.138 34.400002 16.138 C 36.456001 16.138 38.122002 17.843 38.122002 19.945 L 38.122002 30.1 C 38.122002 32.203999 36.456001 33.908001 34.400002 33.908001 C 32.342999 33.908001 30.677999 32.203999 30.677999 30.1 L 30.677999 19.945 Z M 50.529999 19.945 C 50.529999 17.843 52.195 16.138 54.251999 16.138 C 56.307999 16.138 57.973999 17.843 57.973999 19.945 L 57.973999 30.1 C 57.973999 32.203999 56.307999 33.908001 54.251999 33.908001 C 52.195 33.908001 50.529999 32.203999 50.529999 30.1 L 50.529999 19.945 Z"/>
    </g>
</svg>
