<svg width="500" height="500" xmlns="http://www.w3.org/2000/svg" clip-rule="evenodd" fill-rule="evenodd" image-rendering="optimizeQuality" text-rendering="geometricPrecision" shape-rendering="geometricPrecision" version="1.1" xml:space="preserve">

 <g>
  <title>Layer 1</title>
  <g id="Layer_x0020_1">
   <metadata id="CorelCorpID_0Corel-Layer"/>
   <path id="svg_1" d="m22.36999,0l417.26001,0c12.31,0 22.37,10.06 22.37,22.37l0,400.73001c0,12.30002 -10.06,22.37 -22.37,22.37l-32.26999,0l0,19.01001c0,6.20001 -5.06,11.26999 -11.26001,11.26999l-25.10001,0l0,32.03c0,2.28 -1.87,4.15002 -4.14999,4.15002l-32.32999,0c-4.56,0 -8.29001,-3.73001 -8.29001,-8.29001l0,-27.89001l-33.42999,0l0,32.03c0,2.28 -1.86002,4.15002 -4.14001,4.15002l-32.34,0c-4.56001,0 -8.28001,-3.73001 -8.28001,-8.29001l0,-27.89001l-33.42999,0l0,32.03c0,2.28 -1.86,4.15002 -4.14,4.15002l-32.34001,0c-4.56,0 -8.28,-3.73001 -8.28,-8.29001l0,-27.89001l-33.42999,0l0,32.03c0,2.28 -1.86,4.15002 -4.14,4.15002l-32.34,0c-4.56,0 -8.28,-3.73001 -8.28,-8.29001l0,-27.89001l-25.76,0c-6.2,0 -11.26,-5.06998 -11.26,-11.26999l0,-19.01001l-32.27,0c-12.31,0 -22.37,-10.06998 -22.37,-22.37l0,-400.73001c0,-12.31 10.06,-22.37 22.37,-22.37l-0.00001,0zm61.36,103.62l294.54002,0c3.34,0 6.38,1.38 8.56998,3.57c2.19,2.18999 3.56003,5.23 3.56003,8.57l0,53.77c0,3.33 -1.37003,6.37 -3.56003,8.56c-2.19998,2.2 -5.22998,3.57001 -8.56998,3.57001l-294.54002,0c-3.34,0 -6.38,-1.37001 -8.57,-3.57001c-2.19,-2.19 -3.56001,-5.23 -3.56001,-8.56l0,-53.77c0,-3.34 1.36,-6.37 3.56001,-8.57c2.2,-2.21 5.23,-3.57 8.57,-3.57zm158.99998,210.98l15.79001,0c2.29001,0.00998 4.15002,1.87 4.15002,4.16c0,0.82999 -0.25,1.63 -0.70001,2.31998l-37.64001,64.26999c-0.75,1.23001 -2.09,1.98001 -3.53,1.98001c-2.29001,0 -4.15001,-1.85999 -4.15001,-4.13998c0,-0.28 0.02,-0.54999 0.08,-0.81l5.55,-39.45001l-18.73,0.32001c-0.02,0 -0.05,0 -0.08,0c-2.25,0 -4.09,-1.81 -4.13,-4.06c0,-0.01001 0,-0.01001 0,-0.02002c0,-0.75 0.2,-1.5 0.58,-2.14999l37.06,-64.26001c0.75,-1.23999 2.10001,-2 3.55,-2c2.29001,0 4.14999,1.85001 4.14999,4.15002c0,0.17999 -0.01999,0.35999 -0.03999,0.53998l-1.91,39.14999l0,0.00003zm151.34003,-255.93c5.78998,0 10.48999,4.95 10.48999,11.06c0,6.1 -4.70001,11.05 -10.48999,11.05c-5.80002,0 -10.5,-4.95 -10.5,-11.05c0,-6.11 4.69998,-11.06 10.5,-11.06zm-326.13003,0c5.8,0 10.5,4.95 10.5,11.06c0,6.1 -4.7,11.05 -10.5,11.05c-5.8,0 -10.5,-4.95 -10.5,-11.05c0,-6.11 4.7,-11.06 10.5,-11.06zm0,307.96c5.8,0 10.5,4.95999 10.5,11.06c0,6.10999 -4.7,11.06 -10.5,11.06c-5.8,0 -10.5,-4.95001 -10.5,-11.06c0,-6.10001 4.7,-11.06 10.5,-11.06zm326.13003,0c5.78998,0 10.48999,4.95999 10.48999,11.06c0,6.10999 -4.70001,11.06 -10.48999,11.06c-5.80002,0 -10.5,-4.95001 -10.5,-11.06c0,-6.10001 4.69998,-11.06 10.5,-11.06zm-38.94,-206.03c-3.07001,0 -5.53,-0.96001 -7.39001,-2.88c-1.84998,-1.92 -2.76999,-4.45 -2.76999,-7.59l0,-14.98001c0,-3.14999 0.92001,-5.67 2.76999,-7.59c1.86002,-1.92 4.32001,-2.88 7.39001,-2.88c3.07999,0 5.54999,0.96 7.39999,2.88c1.85001,1.92 2.78,4.44 2.78,7.59l0,14.98001c0,3.14 -0.92999,5.67 -2.78,7.59c-1.85001,1.92 -4.32001,2.88 -7.39999,2.88zm0,-7.10001c0.60001,0 1.07999,-0.25999 1.41998,-0.78999c0.35001,-0.53001 0.52002,-1.22 0.52002,-2.08l0,-15.98001c0,-0.86 -0.17001,-1.56 -0.52002,-2.09c-0.34,-0.52 -0.81998,-0.78999 -1.41998,-0.78999c-0.59,0 -1.06,0.26999 -1.41,0.78999c-0.34,0.53 -0.51999,1.23 -0.51999,2.09l0,15.98001c0,0.86 0.17999,1.54999 0.51999,2.08c0.35001,0.53 0.82001,0.78999 1.41,0.78999zm-61.12,7.10001c-3.07001,0 -5.54001,-0.96001 -7.39001,-2.88c-1.85001,-1.92 -2.78,-4.45 -2.78,-7.59l0,-14.98001c0,-3.14999 0.92999,-5.67 2.78,-7.59c1.85001,-1.92 4.32001,-2.88 7.39001,-2.88c3.07999,0 5.54999,0.96 7.39999,2.88c1.85001,1.92 2.76999,4.44 2.76999,7.59l0,14.98001c0,3.14 -0.91998,5.67 -2.76999,7.59c-1.85001,1.92 -4.32001,2.88 -7.39999,2.88zm0,-7.10001c0.59998,0 1.06998,-0.25999 1.41998,-0.78999c0.35001,-0.53001 0.52002,-1.22 0.52002,-2.08l0,-15.98001c0,-0.86 -0.17001,-1.56 -0.52002,-2.09c-0.35001,-0.52 -0.82001,-0.78999 -1.41998,-0.78999c-0.59,0 -1.07001,0.26999 -1.41,0.78999c-0.35001,0.53 -0.52002,1.23 -0.52002,2.09l0,15.98001c0,0.86 0.17001,1.54999 0.52002,2.08c0.34,0.53 0.82001,0.78999 1.41,0.78999zm-63.81003,7.10001c-3.06999,0 -5.53999,-0.96001 -7.39,-2.88c-1.84999,-1.92 -2.77,-4.45 -2.77,-7.59l0,-14.98001c0,-3.14999 0.92001,-5.67 2.77,-7.59c1.85001,-1.92 4.32001,-2.88 7.39,-2.88c3.08,0 5.54001,0.96 7.40001,2.88c1.84999,1.92 2.76999,4.44 2.76999,7.59l0,14.98001c0,3.14 -0.92,5.67 -2.76999,7.59c-1.86,1.92 -4.32001,2.88 -7.40001,2.88zm0,-7.10001c0.60001,0 1.07001,-0.25999 1.42,-0.78999c0.35001,-0.53001 0.52,-1.22 0.52,-2.08l0,-15.98001c0,-0.86 -0.17,-1.56 -0.52,-2.09c-0.34999,-0.52 -0.81999,-0.78999 -1.42,-0.78999c-0.59,0 -1.06,0.26999 -1.41,0.78999c-0.34999,0.53 -0.51999,1.23 -0.51999,2.09l0,15.98001c0,0.86 0.17,1.54999 0.51999,2.08c0.35001,0.53 0.82001,0.78999 1.41,0.78999zm-61.33,7.10001c-3.06999,0 -5.53999,-0.96001 -7.39,-2.88c-1.84999,-1.92 -2.76999,-4.45 -2.76999,-7.59l0,-14.98001c0,-3.14999 0.92,-5.67 2.76999,-7.59c1.85001,-1.92 4.32001,-2.88 7.39,-2.88c3.08,0 5.55,0.96 7.40001,2.88c1.84999,1.92 2.76999,4.44 2.76999,7.59l0,14.98001c0,3.14 -0.92,5.67 -2.76999,7.59c-1.85001,1.92 -4.32001,2.88 -7.40001,2.88zm0,-7.10001c0.60001,0 1.07001,-0.25999 1.42,-0.78999c0.35001,-0.53001 0.52,-1.22 0.52,-2.08l0,-15.98001c0,-0.86 -0.17,-1.56 -0.52,-2.09c-0.34999,-0.52 -0.81999,-0.78999 -1.42,-0.78999c-0.59,0 -1.06,0.26999 -1.40999,0.78999c-0.35001,0.53 -0.52,1.23 -0.52,2.09l0,15.98001c0,0.86 0.17,1.54999 0.52,2.08c0.34999,0.53 0.81999,0.78999 1.40999,0.78999zm-61.15999,7.10001c-3.08,0 -5.54,-0.96001 -7.39,-2.88c-1.85,-1.92 -2.78,-4.45 -2.78,-7.59l0,-14.98001c0,-3.14999 0.93,-5.67 2.78,-7.59c1.85,-1.92 4.31,-2.88 7.39,-2.88c3.07,0 5.54,0.96 7.39,2.88c1.85,1.92 2.78,4.44 2.78,7.59l0,14.98001c0,3.14 -0.93,5.67 -2.78,7.59c-1.85,1.92 -4.32,2.88 -7.39,2.88zm0,-7.10001c0.6,0 1.07,-0.25999 1.41,-0.78999c0.35,-0.53001 0.53,-1.22 0.53,-2.08l0,-15.98001c0,-0.86 -0.18,-1.56 -0.53,-2.09c-0.34,-0.52 -0.81001,-0.78999 -1.41,-0.78999c-0.6,0 -1.07,0.26999 -1.41,0.78999c-0.35001,0.53 -0.52,1.23 -0.52,2.09l0,15.98001c0,0.86 0.17,1.54999 0.52,2.08c0.34,0.53 0.81,0.78999 1.41,0.78999zm58.84999,102.28999c-4.25,0 -7.69,-3.45 -7.69,-7.68999c0,-4.24001 3.44,-7.68001 7.69,-7.68001l128.88002,0c4.25,0 7.69,3.44 7.69,7.68001c0,4.23999 -3.44,7.68999 -7.69,7.68999l-128.88002,0zm-50.58,-38.84999c-4.24,0 -7.68999,-3.44 -7.68999,-7.68001c0,-4.23999 3.45,-7.68999 7.68999,-7.68999l230.04001,0c4.23999,0 7.67999,3.45 7.67999,7.68999c0,4.24001 -3.44,7.68001 -7.67999,7.68001l-230.04001,0zm212.57001,-103.71l0,58.82l49.72,0c0.69,0 1.32001,-0.29001 1.78,-0.75c0.46002,-0.45 0.75,-1.09 0.75,-1.77l0,-53.77c0,-0.69 -0.28998,-1.33 -0.75,-1.79c-0.44998,-0.45 -1.09,-0.74 -1.78,-0.74l-49.72,0zm-9.60999,58.82l0,-58.82l-52.26001,0l0,58.82l52.26001,0zm-61.87,0l0,-58.82l-52.14003,0l0,58.82l52.14003,0zm-61.75002,0l0,-58.82l-52.3,0l0,58.82l52.3,0zm-61.91,0l0,-58.82l-49.67999,0c-0.7,0 -1.33,0.28999 -1.79,0.74c-0.45,0.46 -0.74001,1.09 -0.74001,1.79l0,53.77c0,0.69 0.29,1.32001 0.74001,1.77c0.46,0.45999 1.1,0.75 1.79,0.75l49.67999,0zm-74.08,-133.14l343.34002,0c12.31,0 22.37,10.07 22.37,22.37l0,324.85001c0,12.30002 -10.07001,22.37 -22.37,22.37l-343.34002,0c-12.3,0 -22.37,-10.06 -22.37,-22.37l0,-324.85001c0,-12.31 10.06,-22.37 22.37,-22.37z" fill="black"/>
  </g>
 </g>
</svg>